<svg id="Livello_1" data-name="Livello 1" xmlns="http://www.w3.org/2000/svg" viewBox="0 0 94 33"><defs><style>.cls-1{fill:#3c3c3b;}</style></defs><path class="cls-1" d="M84.52,4.81v0A4.48,4.48,0,0,1,89,.33,4.44,4.44,0,0,1,93.5,4.76v0a4.49,4.49,0,0,1-9,0Zm8.51,0v0a4,4,0,0,0-8,0v0a4,4,0,0,0,8,0ZM87.2,2.32h2.1a2,2,0,0,1,1.42.5,1.31,1.31,0,0,1,.39,1v0A1.41,1.41,0,0,1,90,5.23L91.28,7H90.21L89.07,5.37h-1V7h-.9ZM89.26,4.6c.58,0,.93-.28.93-.73v0c0-.47-.35-.73-.93-.73H88.1V4.6Z"/><path class="cls-1" d="M9.53,4.9A8.72,8.72,0,0,0,3.07,7.54,9,9,0,0,0,.5,14.09V25.48h4V13.83A4.8,4.8,0,0,1,6,10.27a4.85,4.85,0,0,1,3.56-1.5A4.74,4.74,0,0,1,13,10.27a4.82,4.82,0,0,1,1.53,3.56V25.48h4V14.09A9,9,0,0,0,16,7.54,8.68,8.68,0,0,0,9.53,4.9Z"/><path class="cls-1" d="M30.67,4.8a10,10,0,0,0-7.8,3,10.19,10.19,0,0,0-3.17,7.74,10.24,10.24,0,0,0,3.24,7.37,10.05,10.05,0,0,0,7.16,3h.15a10.46,10.46,0,0,0,6-1.94A10.17,10.17,0,0,0,40,18.85l.33-1H36.21l-.19.41A5.93,5.93,0,0,1,30.32,22a6.49,6.49,0,0,1-4.47-1.63,6.1,6.1,0,0,1-2-3.39H40.51V14.91A9.71,9.71,0,0,0,37.65,8.1,10.45,10.45,0,0,0,30.67,4.8Zm5.72,8.43H23.92a6.15,6.15,0,0,1,2-3,6.57,6.57,0,0,1,10.43,3Z"/><path class="cls-1" d="M51.6,4.7h-.28a10.07,10.07,0,0,0-7.13,3.21A10.26,10.26,0,0,0,41.3,15.2a10.46,10.46,0,0,0,3.13,7.57,10.11,10.11,0,0,0,13.64.68v.06a5.26,5.26,0,0,1-1.81,4A6.1,6.1,0,0,1,52,29.22a6.16,6.16,0,0,1-3.81-1.28A5.39,5.39,0,0,1,46,25l-.15-.53H41.89l.25.92a9.57,9.57,0,0,0,3.34,5.06,10.44,10.44,0,0,0,6.2,2.2h.45a10.43,10.43,0,0,0,6.65-2.36A7.94,7.94,0,0,0,62,23.87V15.25a9.88,9.88,0,0,0-3.14-7.48A9.92,9.92,0,0,0,51.6,4.7ZM58,15.42A6.54,6.54,0,0,1,56.1,20a5.75,5.75,0,0,1-4.36,1.88A6.15,6.15,0,0,1,47.19,20a6.39,6.39,0,0,1-1.95-4.59A6.47,6.47,0,0,1,47,10.73a6.09,6.09,0,0,1,4.39-2.12h.33a5.72,5.72,0,0,1,4.37,2A6.47,6.47,0,0,1,58,15.42Z"/><path class="cls-1" d="M80.7,7.77A9.92,9.92,0,0,0,73.46,4.7h-.29a10.06,10.06,0,0,0-7.12,3.21,10.26,10.26,0,0,0-2.89,7.29,10.46,10.46,0,0,0,3.13,7.57,10.11,10.11,0,0,0,13.64.68v.06a5.26,5.26,0,0,1-1.81,4,6.1,6.1,0,0,1-4.26,1.74,6.16,6.16,0,0,1-3.81-1.28A5.46,5.46,0,0,1,67.82,25l-.14-.53H63.75l.25.92a9.57,9.57,0,0,0,3.34,5.06,10.44,10.44,0,0,0,6.19,2.2H74a10.43,10.43,0,0,0,6.65-2.36,7.94,7.94,0,0,0,3.2-6.44V15.25A9.88,9.88,0,0,0,80.7,7.77Zm-.83,7.65A6.54,6.54,0,0,1,78,20a5.75,5.75,0,0,1-4.36,1.88A6.15,6.15,0,0,1,69.05,20a6.39,6.39,0,0,1-2-4.59,6.47,6.47,0,0,1,1.78-4.66,6.09,6.09,0,0,1,4.39-2.12h.33a5.72,5.72,0,0,1,4.37,2A6.47,6.47,0,0,1,79.87,15.42Z"/></svg>